<svg xmlns="http://www.w3.org/2000/svg" display="none">
<symbol id="mail" viewBox="0 0 24 24">
<g>
<path d="M0 0h24v24H0V0z" fill="none"/><path d="M22 6c0-1.1-.9-2-2-2H4c-1.1 0-2 .9-2 2v12c0 1.1.9 2 2 2h16c1.1 0 2-.9 2-2V6zm-2 0l-8 5-8-5h16zm0 12H4V8l8 5 8-5v10z"/>
</g>
</symbol>
<symbol id="discord" viewBox="0 0 24 24" fill-rule="evenodd" clip-rule="evenodd">
<g>
<path d="M19.54 0c1.356 0 2.46 1.104 2.46 2.472v21.528l-2.58-2.28-1.452-1.344-1.536-1.428.636 2.22h-13.608c-1.356 0-2.46-1.104-2.46-2.472v-16.224c0-1.368 1.104-2.472 2.46-2.472h16.08zm-4.632 15.672c2.652-.084 3.672-1.824 3.672-1.824 0-3.864-1.728-6.996-1.728-6.996-1.728-1.296-3.372-1.26-3.372-1.26l-.168.192c2.04.624 2.988 1.524 2.988 1.524-1.248-.684-2.472-1.02-3.612-1.152-.864-.096-1.692-.072-2.424.024l-.204.024c-.42.036-1.44.192-2.724.756-.444.204-.708.348-.708.348s.996-.948 3.156-1.572l-.12-.144s-1.644-.036-3.372 1.26c0 0-1.728 3.132-1.728 6.996 0 0 1.008 1.74 3.66 1.824 0 0 .444-.54.804-.996-1.524-.456-2.1-1.416-2.1-1.416l.336.204.048.036.047.027.014.006.047.027c.3.168.6.3.876.408.492.192 1.08.384 1.764.516.9.168 1.956.228 3.108.012.564-.096 1.14-.264 1.74-.516.42-.156.888-.384 1.38-.708 0 0-.6.984-2.172 1.428.36.456.792.972.792.972zm-5.58-5.604c-.684 0-1.224.6-1.224 1.332 0 .732.552 1.332 1.224 1.332.684 0 1.224-.6 1.224-1.332.012-.732-.54-1.332-1.224-1.332zm4.38 0c-.684 0-1.224.6-1.224 1.332 0 .732.552 1.332 1.224 1.332.684 0 1.224-.6 1.224-1.332 0-.732-.54-1.332-1.224-1.332z"/>
</g>
</symbol>
<symbol id="github" viewBox="0 0 24 24">
<g>
<path d="M12 0c-6.626 0-12 5.373-12 12 0 5.302 3.438 9.8 8.207 11.387.599.111.793-.261.793-.577v-2.234c-3.338.726-4.033-1.416-4.033-1.416-.546-1.387-1.333-1.756-1.333-1.756-1.089-.745.083-.729.083-.729 1.205.084 1.839 1.237 1.839 1.237 1.07 1.834 2.807 1.304 3.492.997.107-.775.418-1.305.762-1.604-2.665-.305-5.467-1.334-5.467-5.931 0-1.311.469-2.381 1.236-3.221-.124-.303-.535-1.524.117-3.176 0 0 1.008-.322 3.301 1.23.957-.266 1.983-.399 3.003-.404 1.02.005 2.047.138 3.006.404 2.291-1.552 3.297-1.23 3.297-1.23.653 1.653.242 2.874.118 3.176.77.84 1.235 1.911 1.235 3.221 0 4.609-2.807 5.624-5.479 5.921.43.372.823 1.102.823 2.222v3.293c0 .319.192.694.801.576 4.765-1.589 8.199-6.086 8.199-11.386 0-6.627-5.373-12-12-12z"/>
</g>
</symbol>
<symbol id="technology" viewBox="0 0 24 24" fill-rule="evenodd" clip-rule="evenodd">
<g>
<path d="M24 8.2c0-.318-.126-.623-.351-.849-.226-.225-.531-.351-.849-.351h-6.6c-.318 0-.623.126-.849.351-.225.226-.351.531-.351.849v13.6c0 .318.126.623.351.849.226.225.531.351.849.351h6.6c.318 0 .623-.126.849-.351.225-.226.351-.531.351-.849v-13.6zm-11 14.8h-8l2.599-3h5.401v3zm6.5-1c-.553 0-1-.448-1-1s.447-1 1-1c.552 0 .999.448.999 1s-.447 1-.999 1zm3.5-3v-9.024h-7v9.024h7zm-2-14h-2v-2h-17v13h11v2h-13v-17h21v4zm-.5 4c.276 0 .5-.224.5-.5s-.224-.5-.5-.5h-2c-.276 0-.5.224-.5.5s.224.5.5.5h2z"/>
</g>
</symbol>
<symbol id="coding" viewBox="0 0 24 24">
<g>
<path d="M24 10.935v2.131l-8 3.947v-2.23l5.64-2.783-5.64-2.79v-2.223l8 3.948zm-16 3.848l-5.64-2.783 5.64-2.79v-2.223l-8 3.948v2.131l8 3.947v-2.23zm7.047-10.783h-2.078l-4.011 16h2.073l4.016-16z"/>
</g>
</symbol>
<symbol id="design" viewBox="0 0 24 24" fill-rule="evenodd" clip-rule="evenodd">
<g>
<path d="M24 23h-20c-2.208 0-4-1.792-4-4v-15.694c.313-1.071 1.285-2.306 3-2.306 1.855 0 2.769 1.342 2.995 2.312l.005 1.688h18v18zm-2-16h-16v11s-.587-1-1.922-1c-1.104 0-2.078.896-2.078 2s.896 2 2 2h18v-14zm-2 12h-12v-10h12v10zm-8-9h-3v8h10v-8h-6v3h6v1h-2v3h-1v-3h-3v3h-1v-7z"/>
</g>
</symbol>
<symbol id="travel" viewBox="0 0 24 24" fill-rule="evenodd" clip-rule="evenodd">
<g>
<path d="M7.488 24h-.001c-.266 0-.487-.216-.487-.487v-.513c-1.104 0-2-.896-2-2v-13c0-1.104.896-2 2-2h2v-5c0-.552.448-1 1-1h4c.552 0 1 .448 1 1v5h2c1.105 0 2 .896 2 2v13c0 1.104-.895 2-2 2v.488c0 .283-.228.512-.512.512h-.001c-.265 0-.487-.214-.487-.487v-.513h-8v.488c0 .283-.229.512-.512.512zm9.012-13c.277 0 .5-.224.5-.5s-.223-.5-.5-.5h-9c-.276 0-.5.224-.5.5s.224.5.5.5h.507c-.072 1.037.389 1.936.996 2.352l-.003 1.476 3.529 3.543 2.834-2.823-3.529-3.542-1.289-.003c-.124-.364-.335-.721-.578-1.003h6.533zm-4.851 3.271l1.821 1.821-.354.353-1.821-1.82.354-.354zm.683 1.744l-.353.354-1.214-1.214.354-.353 1.213 1.213zm-.153-2.274l1.821 1.821-.354.353-1.82-1.821.353-.353zm-1.572-.726c-.102.283-.331.462-.606.539.042.416.551.6.85.303.279-.276.142-.754-.244-.842zm-1.361-2.015c.334.257.614.638.763 1.002l-1.003-.002-.001.682-.018-.022c-.332-.401-.529-.99-.477-1.66h.736zm4.254-9h-3c-.276 0-.5.224-.5.5v3.5h4v-3.5c0-.276-.224-.5-.5-.5z"/>
</g>
</symbol>
</svg>